<?xml version="1.0" encoding="UTF-8"?>
<svg xmlns="http://www.w3.org/2000/svg" version="1.1" width="600" height="600" viewBox="0 0 600 600"><rect x="0" y="0" width="600" height="600" fill="#ffffff"/><g transform="scale(28.571)"><g transform="translate(0,0)"><path fill-rule="evenodd" d="M10 0L10 1L8 1L8 3L9 3L9 4L8 4L8 8L6 8L6 9L7 9L7 10L5 10L5 9L4 9L4 8L3 8L3 9L2 9L2 8L0 8L0 11L2 11L2 12L1 12L1 13L2 13L2 12L3 12L3 10L5 10L5 11L7 11L7 12L4 12L4 13L7 13L7 12L9 12L9 11L11 11L11 12L12 12L12 15L13 15L13 16L12 16L12 18L11 18L11 17L10 17L10 16L11 16L11 15L9 15L9 13L8 13L8 15L9 15L9 17L8 17L8 18L9 18L9 19L8 19L8 21L10 21L10 20L12 20L12 21L18 21L18 20L17 20L17 18L19 18L19 17L20 17L20 19L21 19L21 16L20 16L20 14L18 14L18 13L17 13L17 14L16 14L16 12L18 12L18 11L16 11L16 10L18 10L18 9L20 9L20 11L19 11L19 12L20 12L20 13L21 13L21 12L20 12L20 11L21 11L21 9L20 9L20 8L18 8L18 9L17 9L17 8L14 8L14 9L15 9L15 10L14 10L14 12L13 12L13 9L12 9L12 8L13 8L13 6L12 6L12 8L10 8L10 10L9 10L9 9L8 9L8 8L9 8L9 6L10 6L10 7L11 7L11 4L12 4L12 3L13 3L13 2L12 2L12 0ZM10 1L10 2L9 2L9 3L10 3L10 4L11 4L11 3L10 3L10 2L11 2L11 1ZM1 9L1 10L2 10L2 9ZM8 10L8 11L9 11L9 10ZM14 12L14 14L15 14L15 12ZM17 14L17 15L16 15L16 16L15 16L15 15L14 15L14 17L19 17L19 15L18 15L18 14ZM9 17L9 18L10 18L10 19L11 19L11 18L10 18L10 17ZM13 18L13 19L12 19L12 20L13 20L13 19L14 19L14 20L15 20L15 19L16 19L16 18L15 18L15 19L14 19L14 18ZM19 20L19 21L20 21L20 20ZM0 0L0 7L7 7L7 0ZM1 1L1 6L6 6L6 1ZM2 2L2 5L5 5L5 2ZM14 0L14 7L21 7L21 0ZM15 1L15 6L20 6L20 1ZM16 2L16 5L19 5L19 2ZM0 14L0 21L7 21L7 14ZM1 15L1 20L6 20L6 15ZM2 16L2 19L5 19L5 16Z" fill="#000000"/></g></g></svg>
